# xmcd CD Database Entry
#
# Track frame offsets:
# 150
# 16416
# 34784
#
# Disc length: 673 seconds
#
# Revision: 1
# Processed by: cddbd v1.4PL0 Copyright (c) Steve Scherf et al.
# Submitted via: tcd 2.0b
#
DISCID=1a029f03
DTITLE=모름 - 모름
DYEAR=1900
DGENRE=
TTITLE0=1번 트랙
TTITLE1=2번 트랙
TTITLE2=3번 트랙
EXTD=
EXTT0=
EXTT1=
EXTT2=
PLAYORDER=
